<svg width="58" height="57" viewBox="0 0 58 57" fill="none" xmlns="http://www.w3.org/2000/svg">
<path d="M55.742 2H2.25796C2.11549 2 2 2.82775 2 3.84884V53.1512C2 54.1722 2.11549 55 2.25796 55H55.742C55.8845 55 56 54.1722 56 53.1512V3.84884C56 2.82775 55.8845 2 55.742 2Z" fill="white" stroke="white" stroke-width="2.2"/>
<path fill-rule="evenodd" clip-rule="evenodd" d="M32.7859 6.13786H39.1364C39.7485 9.34741 41.7102 12.1014 44.4279 13.8221C44.4287 13.8232 44.4298 13.8243 44.4307 13.8254C46.3225 15.0228 48.5782 15.7213 50.9997 15.7213V17.5966L51 24.1441C46.5019 24.1441 42.3339 22.7467 38.9318 20.3751V37.4946C38.9318 46.0444 31.7695 53 22.9656 53C19.5638 53 16.409 51.9581 13.8159 50.1898C13.8145 50.1884 13.8131 50.1867 13.8114 50.1853C9.69662 47.3778 7 42.737 7 37.4929C7 28.9434 14.1622 21.9875 22.9662 21.9875C23.6966 21.9875 24.4126 22.0459 25.1176 22.1388V24.1344L25.1173 30.7404C24.4362 30.5334 23.7163 30.413 22.9656 30.413C18.9451 30.413 15.6742 33.59 15.6742 37.4946C15.6742 40.2136 17.2626 42.5761 19.5835 43.7621C20.5954 44.2794 21.7449 44.5759 22.9653 44.5759C26.8932 44.5759 30.0973 41.5416 30.2432 37.761L30.2571 4H38.9315C38.9315 4.73026 39.0042 5.44398 39.1364 6.13786H32.7859Z" fill="#161823"/>
</svg>
